<?xml version="1.0" encoding="utf-8"?>
<!-- Generator: Adobe Illustrator 26.2.1, SVG Export Plug-In . SVG Version: 6.00 Build 0)  -->
<svg version="1.1" id="Layer_1" xmlns="http://www.w3.org/2000/svg" xmlns:xlink="http://www.w3.org/1999/xlink" x="0px" y="0px"
	 viewBox="0 0 1155.7 1155.7" style="enable-background:new 0 0 1155.7 1155.7;" xml:space="preserve">
<style type="text/css">
	.st0{fill:#FFFFFF;stroke:#000000;stroke-width:4;stroke-miterlimit:10;}
	.st1{display:none;}
	.st2{display:inline;fill:none;stroke:#000000;stroke-miterlimit:10;}
	.st3{fill:none;stroke:#000000;stroke-width:3;stroke-miterlimit:10;}
</style>
<circle class="st0" cx="564.1" cy="568.4" r="367.4"/>
<g>
	<path d="M572.1,155.3c-0.6-0.9-1.3-1.7-2.1-2.4c-0.8-0.7-1.8-1.2-2.8-1.6c-1.1-0.4-2.2-0.6-3.3-0.6c-2.1,0-3.9,0.4-5.4,1.2
		c-1.5,0.8-2.7,1.9-3.6,3.3c-0.9,1.4-1.6,3-2,4.7c-0.4,1.8-0.6,3.6-0.6,5.5c0,1.8,0.2,3.6,0.6,5.2c0.4,1.7,1.1,3.2,2,4.6
		c0.9,1.4,2.1,2.5,3.6,3.3c1.5,0.8,3.3,1.2,5.4,1.2c2.9,0,5.1-0.9,6.8-2.6c1.6-1.8,2.6-4.1,3-7h9.1c-0.2,2.7-0.9,5.1-1.9,7.3
		c-1,2.2-2.3,4-4,5.5c-1.6,1.5-3.6,2.7-5.8,3.5c-2.2,0.8-4.6,1.2-7.3,1.2c-3.3,0-6.2-0.6-8.8-1.7c-2.6-1.1-4.8-2.7-6.6-4.7
		c-1.8-2-3.2-4.4-4.1-7c-1-2.7-1.4-5.6-1.4-8.7c0-3.2,0.5-6.2,1.4-8.9c1-2.7,2.3-5.1,4.1-7.2c1.8-2,4-3.6,6.6-4.8
		c2.6-1.2,5.6-1.7,8.8-1.7c2.4,0,4.6,0.3,6.7,1c2.1,0.7,4,1.7,5.6,3c1.7,1.3,3,2.9,4.1,4.8s1.8,4.1,2,6.6h-9.1
		C573,157.2,572.7,156.2,572.1,155.3z"/>
</g>
<g>
	<path d="M777.3,204.7c-0.6-0.9-1.3-1.7-2.1-2.4c-0.8-0.7-1.8-1.2-2.8-1.6c-1.1-0.4-2.2-0.6-3.3-0.6c-2.1,0-3.9,0.4-5.4,1.2
		c-1.5,0.8-2.7,1.9-3.6,3.3c-0.9,1.4-1.6,3-2,4.7c-0.4,1.8-0.6,3.6-0.6,5.5c0,1.8,0.2,3.6,0.6,5.2c0.4,1.7,1.1,3.2,2,4.6
		c0.9,1.4,2.1,2.5,3.6,3.3c1.5,0.8,3.3,1.2,5.4,1.2c2.9,0,5.1-0.9,6.8-2.6c1.6-1.8,2.6-4.1,3-7h9.1c-0.2,2.7-0.9,5.1-1.9,7.3
		c-1,2.2-2.3,4-4,5.5c-1.6,1.5-3.6,2.7-5.8,3.5c-2.2,0.8-4.6,1.2-7.3,1.2c-3.3,0-6.2-0.6-8.8-1.7c-2.6-1.1-4.8-2.7-6.6-4.7
		c-1.8-2-3.2-4.4-4.1-7c-1-2.7-1.4-5.6-1.4-8.7c0-3.2,0.5-6.2,1.4-8.9c1-2.7,2.3-5.1,4.1-7.2c1.8-2,4-3.6,6.6-4.8
		c2.6-1.2,5.6-1.7,8.8-1.7c2.4,0,4.6,0.3,6.7,1c2.1,0.7,4,1.7,5.6,3c1.7,1.3,3,2.9,4.1,4.8s1.8,4.1,2,6.6h-9.1
		C778.2,206.5,777.9,205.6,777.3,204.7z"/>
	<path d="M800.8,236.1v-9.8l-5.9,1.2v-5.6l5.9-1.2v-9.4l-5.9,1.2v-5.6l5.9-1.3v-9.4l2.5-0.4v9.3l6.6-1.5v-10.5l2.5-0.4v10.4l5.9-1.3
		v5.7l-5.9,1.2v9.3l5.9-1.1v5.6l-5.9,1.3v8.8l-2.5,0.5v-8.8l-6.6,1.6v9.9L800.8,236.1z M803.2,220l6.6-1.5v-9.4l-6.6,1.6V220z"/>
	<path d="M841.4,192.2h2.5l-19.1,44.9h-2.5L841.4,192.2z"/>
	<path d="M865.7,193.2c2.8,0,5.3,0.4,7.7,1.3c2.4,0.9,4.4,2.2,6.2,4c1.7,1.8,3.1,4,4.1,6.6c1,2.6,1.5,5.7,1.5,9.3
		c0,3.1-0.4,6-1.2,8.6c-0.8,2.6-2,4.9-3.6,6.8c-1.6,1.9-3.6,3.4-6.1,4.5c-2.4,1.1-5.3,1.6-8.5,1.6h-18.5v-42.8H865.7z M865,228.1
		c1.4,0,2.7-0.2,4-0.7c1.3-0.4,2.4-1.2,3.4-2.2s1.8-2.3,2.4-4c0.6-1.6,0.9-3.6,0.9-6c0-2.2-0.2-4.1-0.6-5.9
		c-0.4-1.7-1.1-3.2-2.1-4.5c-1-1.2-2.2-2.2-3.8-2.9c-1.6-0.7-3.5-1-5.8-1h-6.7v27H865z"/>
	<path d="M895.1,236.5v-48.8h2.1V214c0.3-0.5,0.6-1,1.1-1.4c0.5-0.4,1-0.8,1.5-1.1c0.6-0.4,1.2-0.6,2-0.8c0.8-0.2,1.6-0.3,2.4-0.3
		c1.1,0,2.1,0.2,3,0.5c0.9,0.3,1.6,0.8,2.3,1.4c0.7,0.6,1.2,1.3,1.5,2.2c0.4,0.9,0.5,1.8,0.5,2.6c0,1.6-0.5,3.4-1.4,5.2
		c-1,1.8-2.6,3.7-4.8,5.5c-0.2,0.2-0.5,0.5-1,0.9c-0.5,0.4-1,0.8-1.6,1.4c-0.6,0.5-1.2,1-1.8,1.5s-1.3,1-1.8,1.4
		c-0.5,0.5-1,0.9-1.3,1.2c-0.3,0.3-0.6,0.5-0.6,0.5c-0.8,0.7-1.4,1.2-1.7,1.4C895.3,236.4,895.1,236.5,895.1,236.5z M897.2,233.3
		c0.5-0.6,1.2-1.3,2-2.2c0.8-0.9,1.8-1.9,2.8-3c1.3-1.3,2.2-2.5,2.6-3.7c0.5-1.1,0.7-2.1,0.7-2.9c0-1-0.3-1.9-1-2.5
		c-0.7-0.7-1.5-1-2.4-1c-0.8,0-1.4,0.2-2,0.5c-0.6,0.3-1.1,0.7-1.5,1.2c-0.5,0.5-0.9,1-1.3,1.6V233.3z"/>
</g>
<g>
	<path d="M920.7,354.7c2.8,0,5.3,0.4,7.7,1.3c2.4,0.9,4.4,2.2,6.2,4c1.7,1.8,3.1,4,4.1,6.6c1,2.6,1.5,5.7,1.5,9.3
		c0,3.1-0.4,6-1.2,8.6c-0.8,2.6-2,4.9-3.6,6.8c-1.6,1.9-3.6,3.4-6.1,4.5c-2.4,1.1-5.3,1.6-8.5,1.6h-18.5v-42.8H920.7z M920,389.6
		c1.4,0,2.7-0.2,4-0.7c1.3-0.4,2.4-1.2,3.4-2.2s1.8-2.3,2.4-4c0.6-1.6,0.9-3.6,0.9-6c0-2.2-0.2-4.1-0.6-5.9
		c-0.4-1.7-1.1-3.2-2.1-4.5c-1-1.2-2.2-2.2-3.8-2.9c-1.6-0.7-3.5-1-5.8-1h-6.7v27H920z"/>
</g>
<g>
	<path d="M967.6,544.3c2.8,0,5.3,0.4,7.7,1.3c2.4,0.9,4.4,2.2,6.2,4c1.7,1.8,3.1,4,4.1,6.6c1,2.6,1.5,5.7,1.5,9.3
		c0,3.1-0.4,6-1.2,8.6c-0.8,2.6-2,4.9-3.6,6.8c-1.6,1.9-3.6,3.4-6.1,4.5c-2.4,1.1-5.3,1.7-8.5,1.7h-18.5v-42.8H967.6z M967,579.2
		c1.4,0,2.7-0.2,4-0.7c1.3-0.4,2.4-1.2,3.4-2.2s1.8-2.3,2.4-4c0.6-1.6,0.9-3.6,0.9-6c0-2.2-0.2-4.1-0.6-5.9
		c-0.4-1.7-1.1-3.2-2.1-4.5c-1-1.2-2.2-2.2-3.8-2.9c-1.6-0.7-3.5-1-5.8-1h-6.7v27H967z"/>
	<path d="M1000.1,587.1v-9.8l-5.9,1.2v-5.6l5.9-1.2v-9.4l-5.9,1.2V558l5.9-1.3v-9.4l2.5-0.4v9.3l6.6-1.5v-10.5l2.5-0.4v10.4l5.9-1.3
		v5.7l-5.9,1.2v9.3l5.9-1.1v5.6l-5.9,1.3v8.8l-2.5,0.5v-8.8l-6.6,1.6v9.9L1000.1,587.1z M1002.6,571.1l6.6-1.5v-9.4l-6.6,1.6V571.1z
		"/>
	<path d="M1040.7,543.3h2.5l-19.1,44.9h-2.5L1040.7,543.3z"/>
	<path d="M1078.6,544.3v7.9H1056v9.2h20.8v7.3H1056v10.5h23.1v7.9h-32.5v-42.8H1078.6z"/>
	<path d="M1088.8,587.6v-48.8h2.1v26.3c0.3-0.5,0.6-1,1.1-1.4c0.5-0.4,1-0.8,1.5-1.1c0.6-0.4,1.2-0.6,2-0.8c0.8-0.2,1.6-0.3,2.4-0.3
		c1.1,0,2.1,0.2,3,0.5c0.9,0.3,1.6,0.8,2.3,1.4c0.7,0.6,1.2,1.3,1.5,2.2c0.4,0.9,0.5,1.8,0.5,2.6c0,1.6-0.5,3.4-1.4,5.2
		c-1,1.8-2.6,3.7-4.8,5.6c-0.2,0.2-0.5,0.5-1,0.9c-0.5,0.4-1,0.8-1.6,1.3c-0.6,0.5-1.2,1-1.8,1.5c-0.7,0.5-1.3,1-1.8,1.4
		c-0.5,0.5-1,0.9-1.3,1.2c-0.3,0.3-0.6,0.5-0.6,0.5c-0.8,0.7-1.4,1.2-1.7,1.4C1089,587.5,1088.9,587.6,1088.8,587.6z M1090.9,584.4
		c0.5-0.6,1.2-1.3,2-2.2c0.8-0.9,1.8-1.9,2.8-3c1.3-1.3,2.2-2.5,2.6-3.7c0.5-1.1,0.7-2.1,0.7-2.9c0-1-0.3-1.9-1-2.5
		c-0.7-0.7-1.5-1-2.4-1c-0.8,0-1.4,0.2-2,0.5c-0.6,0.3-1.1,0.7-1.5,1.2c-0.5,0.5-0.9,1-1.3,1.6V584.4z"/>
</g>
<g>
	<path d="M930.8,750.5v7.9h-22.6v9.2h20.8v7.3h-20.8v10.5h23.1v7.9h-32.5v-42.8H930.8z"/>
</g>
<g>
	<path d="M782.4,900.5v7.9h-20.7v9.9h17.9v7.3h-17.9v17.7h-9.4v-42.8H782.4z"/>
</g>
<g>
	<path d="M525.3,953.2v7.9h-20.7v9.9h17.9v7.3h-17.9V996h-9.4v-42.8H525.3z"/>
	<path d="M537.3,996v-9.8l-5.9,1.2v-5.6l5.9-1.2v-9.4l-5.9,1.2v-5.6l5.9-1.3v-9.4l2.5-0.4v9.3l6.6-1.5v-10.5l2.5-0.4V963l5.9-1.3
		v5.7l-5.9,1.2v9.3l5.9-1.1v5.6l-5.9,1.3v8.8l-2.5,0.5v-8.8l-6.6,1.6v9.9L537.3,996z M539.7,980l6.6-1.5v-9.4l-6.6,1.6V980z"/>
	<path d="M577.9,952.2h2.5l-19.1,44.9h-2.5L577.9,952.2z"/>
	<path d="M609.1,995.7c-2,0.9-4.1,1.3-6.2,1.3c-3.3,0-6.2-0.6-8.8-1.7c-2.6-1.1-4.8-2.7-6.6-4.7c-1.8-2-3.2-4.3-4.1-7
		c-1-2.7-1.4-5.6-1.4-8.7c0-3.2,0.5-6.2,1.4-8.9c1-2.7,2.3-5.1,4.1-7.2c1.8-2,4-3.6,6.6-4.8c2.6-1.2,5.6-1.7,8.8-1.7
		c2.2,0,4.3,0.3,6.4,1c2.1,0.7,3.9,1.6,5.6,2.9c1.7,1.3,3,2.9,4.1,4.7c1.1,1.9,1.7,4,2,6.5h-9c-0.6-2.4-1.6-4.2-3.2-5.4
		c-1.6-1.2-3.5-1.8-5.8-1.8c-2.1,0-3.9,0.4-5.4,1.2c-1.5,0.8-2.7,1.9-3.6,3.3c-0.9,1.4-1.6,3-2,4.7c-0.4,1.8-0.6,3.6-0.6,5.5
		c0,1.8,0.2,3.6,0.6,5.2c0.4,1.7,1.1,3.2,2,4.6c0.9,1.4,2.1,2.5,3.6,3.3c1.5,0.8,3.3,1.2,5.4,1.2c3.1,0,5.5-0.8,7.2-2.4
		c1.7-1.6,2.7-3.9,3-6.9h-9.5v-7h18V996h-6l-1-4.9C613,993.3,611.1,994.8,609.1,995.7z"/>
	<path d="M632.7,996.5v-48.8h2.1V974c0.3-0.5,0.6-1,1.1-1.4c0.5-0.4,1-0.8,1.5-1.1c0.6-0.4,1.2-0.6,2-0.8c0.8-0.2,1.6-0.3,2.4-0.3
		c1.1,0,2.1,0.2,3,0.5c0.9,0.3,1.6,0.8,2.3,1.4s1.2,1.3,1.5,2.2c0.4,0.9,0.5,1.8,0.5,2.6c0,1.6-0.5,3.4-1.4,5.2
		c-1,1.8-2.6,3.7-4.8,5.6c-0.2,0.2-0.5,0.5-1,0.9c-0.5,0.4-1,0.8-1.6,1.4c-0.6,0.5-1.2,1-1.8,1.5s-1.3,1-1.8,1.4s-1,0.9-1.3,1.2
		c-0.3,0.3-0.6,0.5-0.6,0.5c-0.8,0.7-1.4,1.2-1.7,1.4C632.8,996.4,632.7,996.5,632.7,996.5z M634.8,993.3c0.5-0.6,1.2-1.3,2-2.2
		c0.8-0.9,1.8-1.9,2.8-3c1.3-1.3,2.2-2.5,2.6-3.7c0.5-1.1,0.7-2.1,0.7-2.9c0-1-0.3-1.9-1-2.6s-1.5-1-2.4-1c-0.8,0-1.4,0.2-2,0.5
		c-0.6,0.3-1.1,0.7-1.5,1.2c-0.5,0.5-0.9,1-1.3,1.6V993.3z"/>
</g>
<g>
	<path d="M363.4,941.9c-2,0.9-4.1,1.3-6.2,1.3c-3.3,0-6.2-0.6-8.8-1.7c-2.6-1.1-4.8-2.7-6.6-4.7c-1.8-2-3.2-4.4-4.1-7
		c-1-2.7-1.4-5.6-1.4-8.7c0-3.2,0.5-6.2,1.4-8.9c1-2.7,2.3-5.1,4.1-7.2c1.8-2,4-3.6,6.6-4.8c2.6-1.2,5.6-1.7,8.8-1.7
		c2.2,0,4.3,0.3,6.4,1c2.1,0.7,3.9,1.6,5.6,2.9s3,2.9,4.1,4.7c1.1,1.9,1.7,4,2,6.5h-9c-0.6-2.4-1.6-4.2-3.2-5.4
		c-1.6-1.2-3.5-1.8-5.8-1.8c-2.1,0-3.9,0.4-5.4,1.2c-1.5,0.8-2.7,1.9-3.6,3.3c-0.9,1.4-1.6,3-2,4.7c-0.4,1.8-0.6,3.6-0.6,5.5
		c0,1.8,0.2,3.6,0.6,5.2c0.4,1.7,1.1,3.2,2,4.6c0.9,1.4,2.1,2.5,3.6,3.3c1.5,0.8,3.3,1.2,5.4,1.2c3.1,0,5.5-0.8,7.2-2.4
		c1.7-1.6,2.7-3.9,3-6.9h-9.5v-7h18v23.2h-6l-1-4.9C367.3,939.6,365.4,941.1,363.4,941.9z"/>
</g>
<g>
	<path d="M104.3,802.5c-2,0.9-4.1,1.3-6.2,1.3c-3.3,0-6.2-0.6-8.8-1.7c-2.6-1.1-4.8-2.7-6.6-4.7c-1.8-2-3.2-4.4-4.1-7
		c-1-2.7-1.4-5.6-1.4-8.7c0-3.2,0.5-6.2,1.4-8.9c1-2.7,2.3-5.1,4.1-7.2c1.8-2,4-3.6,6.6-4.8c2.6-1.2,5.6-1.7,8.8-1.7
		c2.2,0,4.3,0.3,6.4,1c2.1,0.7,3.9,1.6,5.6,2.9s3,2.9,4.1,4.7c1.1,1.9,1.7,4,2,6.5h-9c-0.6-2.4-1.6-4.2-3.2-5.4
		c-1.6-1.2-3.5-1.8-5.8-1.8c-2.1,0-3.9,0.4-5.4,1.2c-1.5,0.8-2.7,1.9-3.6,3.3c-0.9,1.4-1.6,3-2,4.7c-0.4,1.8-0.6,3.6-0.6,5.5
		c0,1.8,0.2,3.6,0.6,5.2c0.4,1.7,1.1,3.2,2,4.6c0.9,1.4,2.1,2.5,3.6,3.3c1.5,0.8,3.3,1.2,5.4,1.2c3.1,0,5.5-0.8,7.2-2.4
		c1.7-1.6,2.7-3.9,3-6.9h-9.5v-7h18v23.2h-6l-1-4.9C108.2,800.2,106.4,801.7,104.3,802.5z"/>
	<path d="M131,802.9V793l-5.9,1.2v-5.6l5.9-1.2v-9.4l-5.9,1.2v-5.6l5.9-1.3V763l2.5-0.4v9.3l6.6-1.5v-10.5l2.5-0.4v10.4l5.9-1.3v5.7
		l-5.9,1.2v9.3l5.9-1.1v5.6l-5.9,1.3v8.8l-2.5,0.5V791l-6.6,1.6v9.9L131,802.9z M133.4,786.8l6.6-1.5V776l-6.6,1.6V786.8z"/>
	<path d="M171.6,759h2.5L155,803.9h-2.5L171.6,759z"/>
	<path d="M198.8,760l16,42.8H205l-3.2-9.5h-16l-3.4,9.5h-9.5l16.2-42.8H198.8z M199.3,786.3l-5.4-15.7h-0.1l-5.6,15.7H199.3z"/>
	<path d="M221.9,803.3v-48.8h2.1v26.3c0.3-0.5,0.6-1,1.1-1.3c0.5-0.4,1-0.8,1.5-1.1c0.6-0.4,1.2-0.6,2-0.8c0.8-0.2,1.6-0.3,2.4-0.3
		c1.1,0,2.1,0.2,3,0.5c0.9,0.3,1.6,0.8,2.3,1.4c0.7,0.6,1.2,1.3,1.5,2.2s0.5,1.8,0.5,2.6c0,1.6-0.5,3.4-1.4,5.2s-2.6,3.7-4.8,5.5
		c-0.2,0.2-0.5,0.5-1,0.9c-0.5,0.4-1,0.8-1.6,1.3c-0.6,0.5-1.2,1-1.8,1.5c-0.7,0.5-1.3,1-1.8,1.4c-0.5,0.5-1,0.9-1.3,1.2
		c-0.3,0.3-0.6,0.5-0.6,0.5c-0.8,0.7-1.4,1.2-1.7,1.4C222.1,803.2,222,803.3,221.9,803.3z M224,800.1c0.5-0.6,1.2-1.3,2-2.2
		c0.8-0.9,1.8-1.9,2.8-3c1.3-1.3,2.2-2.5,2.6-3.7c0.5-1.1,0.7-2.1,0.7-2.9c0-1-0.3-1.9-1-2.5c-0.7-0.7-1.5-1-2.4-1
		c-0.8,0-1.4,0.2-2,0.5c-0.6,0.3-1.1,0.7-1.5,1.2c-0.5,0.5-0.9,1-1.3,1.6V800.1z"/>
</g>
<g>
	<path d="M163.5,544.3l16,42.8h-9.8l-3.2-9.5h-16l-3.4,9.5h-9.5l16.2-42.8H163.5z M164,570.6l-5.4-15.7h-0.1l-5.6,15.7H164z"/>
</g>
<g>
	<path d="M103.6,344.8l16,42.8h-9.8l-3.2-9.5h-16l-3.4,9.5h-9.5l16.2-42.8H103.6z M104.1,371.1l-5.4-15.7h-0.1L93,371.1H104.1z"/>
	<path d="M129.8,387.6v-9.8l-5.9,1.2v-5.6l5.9-1.2v-9.4l-5.9,1.2v-5.6l5.9-1.3v-9.4l2.5-0.4v9.3l6.6-1.5v-10.5l2.5-0.4v10.4l5.9-1.3
		v5.7l-5.9,1.2v9.3l5.9-1.1v5.6l-5.9,1.3v8.8l-2.5,0.5v-8.8l-6.6,1.6v9.9L129.8,387.6z M132.3,371.6l6.6-1.5v-9.4l-6.6,1.6V371.6z"
		/>
	<path d="M170.4,343.8h2.5l-19.1,44.9h-2.5L170.4,343.8z"/>
	<path d="M196.4,344.8c2,0,3.9,0.2,5.6,0.5c1.7,0.4,3.1,1,4.3,1.8c1.2,0.8,2.1,1.9,2.8,3.3c0.7,1.4,1,3,1,5c0,2.2-0.5,4-1.5,5.4
		c-1,1.4-2.4,2.6-4.3,3.5c2.6,0.8,4.6,2.1,5.9,4c1.3,1.9,1.9,4.2,1.9,6.9c0,2.2-0.4,4-1.3,5.6c-0.8,1.6-2,2.9-3.4,3.9
		c-1.4,1-3,1.7-4.9,2.2s-3.7,0.7-5.6,0.7h-20.8v-42.8H196.4z M195.2,362.1c1.7,0,3.1-0.4,4.1-1.2c1.1-0.8,1.6-2.1,1.6-3.9
		c0-1-0.2-1.8-0.5-2.5c-0.4-0.6-0.8-1.1-1.4-1.5c-0.6-0.4-1.3-0.6-2.1-0.8c-0.8-0.1-1.6-0.2-2.4-0.2h-8.8v10H195.2z M195.7,380.3
		c0.9,0,1.8-0.1,2.6-0.3c0.8-0.2,1.6-0.5,2.2-0.9c0.6-0.4,1.1-1,1.5-1.7c0.4-0.7,0.6-1.6,0.6-2.8c0-2.2-0.6-3.8-1.9-4.7
		c-1.2-0.9-2.9-1.4-4.9-1.4h-10.3v11.8H195.7z"/>
	<path d="M221.9,388.1v-48.8h2.1v26.3c0.3-0.5,0.6-1,1.1-1.4c0.5-0.4,1-0.8,1.5-1.1c0.6-0.4,1.2-0.6,2-0.8c0.8-0.2,1.6-0.3,2.4-0.3
		c1.1,0,2.1,0.2,3,0.5c0.9,0.3,1.6,0.8,2.3,1.4c0.7,0.6,1.2,1.3,1.5,2.2c0.4,0.9,0.5,1.8,0.5,2.6c0,1.6-0.5,3.4-1.4,5.2
		c-1,1.8-2.6,3.7-4.8,5.5c-0.2,0.2-0.5,0.5-1,0.9c-0.5,0.4-1,0.8-1.6,1.4c-0.6,0.5-1.2,1-1.8,1.5s-1.3,1-1.8,1.4
		c-0.5,0.5-1,0.9-1.3,1.2c-0.3,0.3-0.6,0.5-0.6,0.5c-0.8,0.7-1.4,1.2-1.7,1.4C222.1,388,221.9,388.1,221.9,388.1z M224,384.9
		c0.5-0.6,1.2-1.3,2-2.2c0.8-0.9,1.8-1.9,2.8-3c1.3-1.3,2.2-2.5,2.6-3.7c0.5-1.1,0.7-2.1,0.7-2.9c0-1-0.3-1.9-1-2.5
		c-0.7-0.7-1.5-1-2.4-1c-0.8,0-1.4,0.2-2,0.5c-0.6,0.3-1.1,0.7-1.5,1.2c-0.5,0.5-0.9,1-1.3,1.6V384.9z"/>
</g>
<g>
	<path d="M363.4,197.2c2,0,3.9,0.2,5.6,0.5c1.7,0.4,3.1,1,4.3,1.8c1.2,0.8,2.1,1.9,2.8,3.3c0.7,1.4,1,3,1,5c0,2.2-0.5,4-1.5,5.4
		c-1,1.4-2.4,2.6-4.3,3.5c2.6,0.8,4.6,2.1,5.9,4c1.3,1.9,1.9,4.2,1.9,6.9c0,2.2-0.4,4-1.3,5.6c-0.8,1.6-2,2.9-3.4,3.9
		c-1.4,1-3,1.7-4.9,2.2s-3.7,0.7-5.6,0.7h-20.8v-42.8H363.4z M362.2,214.6c1.7,0,3.1-0.4,4.1-1.2c1.1-0.8,1.6-2.1,1.6-3.9
		c0-1-0.2-1.8-0.5-2.5c-0.4-0.6-0.8-1.1-1.4-1.5c-0.6-0.4-1.3-0.6-2.1-0.8c-0.8-0.1-1.6-0.2-2.4-0.2h-8.8v10H362.2z M362.8,232.8
		c0.9,0,1.8-0.1,2.6-0.3c0.8-0.2,1.6-0.5,2.2-0.9c0.6-0.4,1.1-1,1.5-1.7c0.4-0.7,0.6-1.6,0.6-2.8c0-2.2-0.6-3.8-1.9-4.7
		c-1.2-0.9-2.9-1.4-4.9-1.4h-10.3v11.8H362.8z"/>
</g>
<g id="Dots">
	<circle cx="245.9" cy="752" r="6.5"/>
	<circle cx="380.3" cy="886.6" r="6.5"/>
	<circle cx="564.1" cy="935.8" r="6.5"/>
	<circle cx="747.8" cy="886.6" r="6.5"/>
	<circle cx="882.3" cy="752.1" r="6.5"/>
	<circle cx="931.5" cy="568.4" r="6.5"/>
	<circle cx="882.3" cy="384.6" r="6.5"/>
	<circle cx="564.1" cy="200.9" r="6.5"/>
	<circle cx="380.4" cy="250.2" r="6.5"/>
	<circle cx="245.8" cy="384.6" r="6.5"/>
	<circle cx="196.6" cy="568.4" r="6.5"/>
	<circle cx="748.2" cy="249.5" r="6.5"/>
</g>
<g id="Lines" class="st1">
	<line class="st2" x1="564.1" y1="200.9" x2="564.1" y2="935.8"/>
	<line class="st2" x1="380.4" y1="250.2" x2="747.8" y2="886.5"/>
	<line class="st2" x1="245.9" y1="384.6" x2="882.3" y2="752.1"/>
	<line class="st2" x1="196.6" y1="568.4" x2="931.5" y2="568.4"/>
	<line class="st2" x1="245.9" y1="752.1" x2="882.3" y2="384.6"/>
	<line class="st2" x1="380.4" y1="886.5" x2="747.8" y2="250.2"/>
</g>
<path class="st3" d="M564.8,210.7c103,59.4,205.9,118.9,308.9,178.3c0,119,0,238.1,0,357.1c-43.6,43.6-87.1,87.1-130.7,130.7
	c-119,0-238.1,0-357.1,0c-59.5-103.1-119-206.2-178.5-309.3C266.9,464.6,326.4,361.5,386,258.5C445.6,242.6,505.2,226.6,564.8,210.7
	z"/>
<g>
</g>
<g>
</g>
<g>
</g>
<g>
</g>
<g>
</g>
<g>
</g>
<g>
</g>
<g>
</g>
<g>
</g>
<g>
</g>
<g>
</g>
<g>
</g>
<g>
</g>
<g>
</g>
<g>
</g>
</svg>
